<svg xmlns="http://www.w3.org/2000/svg" width="60" height="17" viewBox="0 0 60 17">
    <g fill="none" fill-rule="evenodd">
        <g>
            <g transform="translate(-298 -474) translate(298 474)">
                <rect width="59" height="16" x=".5" y=".5" fill="#FFF" stroke="#4BA92B" rx="6"/>
                <path fill="#4BA92B" fill-rule="nonzero" d="M9.45 12c.857 0 1.548-.225 2.072-.673.524-.448.814-1.062.871-1.843h-1.506c-.034.442-.165.768-.395.98-.229.21-.576.315-1.042.315-.515 0-.893-.18-1.132-.542-.24-.362-.36-.935-.36-1.719V7.97c.007-.75.135-1.304.385-1.66.25-.358.625-.536 1.127-.536.462 0 .807.105 1.033.316.226.211.357.55.394 1.019h1.506c-.08-.81-.378-1.44-.894-1.888-.515-.448-1.195-.672-2.039-.672-.609 0-1.144.142-1.604.426-.46.284-.815.691-1.062 1.222-.248.532-.372 1.146-.372 1.843v.443c0 1.093.269 1.952.806 2.578.537.626 1.275.939 2.212.939zm6.188 0c.783 0 1.408-.25 1.873-.75.466-.5.698-1.163.698-1.99l-.01-.368c-.053-.764-.312-1.368-.776-1.813-.463-.445-1.062-.667-1.795-.667-.516 0-.969.114-1.359.343-.39.23-.689.553-.896.971-.208.419-.312.895-.312 1.43v.065c0 .856.234 1.533.701 2.032.467.498 1.092.747 1.876.747zm0-1.16c-.362 0-.64-.136-.834-.407-.194-.27-.291-.661-.291-1.173 0-.574.097-.998.291-1.272.194-.274.469-.411.824-.411.358 0 .636.138.833.413.198.276.297.664.297 1.166 0 .587-.099 1.015-.297 1.282-.197.268-.472.401-.823.401zm4.887 1.06V8.1c.204-.345.51-.518.919-.518.311 0 .534.069.668.207.134.137.2.359.2.665V11.9h1.452V8.419c-.007-.668-.15-1.17-.432-1.504-.281-.336-.71-.503-1.286-.503-.653 0-1.173.24-1.562.722l-.045-.623h-1.366V11.9h1.452zm9.899.1c.612 0 1.156-.146 1.63-.439.473-.292.837-.707 1.092-1.245.254-.538.381-1.164.381-1.877v-.324c0-.71-.13-1.337-.389-1.88-.26-.543-.626-.96-1.1-1.25-.474-.29-1.015-.436-1.624-.436-.61 0-1.151.145-1.625.436-.474.29-.84.707-1.1 1.25-.26.543-.39 1.171-.39 1.885v.358c.004.698.136 1.314.397 1.85.262.537.63.95 1.105 1.238.476.29 1.017.434 1.623.434zm0-1.226c-.516 0-.911-.204-1.186-.612-.274-.409-.412-.983-.412-1.723v-.354c.004-.754.143-1.326.417-1.716.275-.39.665-.585 1.17-.585.51 0 .901.198 1.176.593.274.395.412.973.412 1.733v.353c-.004.754-.141 1.328-.412 1.721-.271.394-.66.59-1.165.59zm5.554 1.126V8.374c.171-.369.53-.553 1.08-.553.15 0 .325.013.522.04l.02-1.385c-.14-.043-.29-.064-.452-.064-.515 0-.919.247-1.21.742l-.04-.643h-1.371V11.9h1.451zm4.098.1c.57 0 1.035-.225 1.397-.673l.07.573h1.31V4.25h-1.456V7c-.345-.393-.781-.588-1.31-.588-.66 0-1.18.249-1.56.747-.38.498-.57 1.167-.57 2.007 0 .89.193 1.584.58 2.084.387.5.9.75 1.54.75zm.372-1.166c-.338 0-.596-.134-.773-.403-.178-.27-.267-.656-.267-1.16 0-1.126.35-1.69 1.05-1.69.445 0 .759.189.94.564v2.126c-.185.376-.501.563-.95.563zM46.48 12c.452 0 .864-.086 1.235-.257.372-.17.667-.41.884-.715l-.713-.791c-.315.401-.752.602-1.31.602-.362 0-.661-.106-.897-.319-.236-.212-.378-.494-.425-.846h3.46v-.588c0-.853-.213-1.512-.64-1.977-.426-.465-1.011-.697-1.755-.697-.495 0-.936.115-1.323.346-.387.23-.686.56-.897.986-.21.426-.316.91-.316 1.452v.14c0 .806.25 1.452.75 1.936.501.485 1.15.728 1.947.728zm.809-3.307h-2.02c.05-.359.165-.635.345-.827.179-.193.412-.289.7-.289.308 0 .546.087.713.261.168.175.255.421.262.74v.115zm3.67 3.207V8.1c.205-.345.511-.518.92-.518.311 0 .534.069.668.207.134.137.2.359.2.665V11.9H54.2V8.419c-.006-.668-.15-1.17-.432-1.504-.281-.336-.71-.503-1.285-.503-.653 0-1.174.24-1.562.722l-.046-.623h-1.366V11.9h1.452z"/>
            </g>
        </g>
    </g>
</svg>
