<svg xmlns="http://www.w3.org/2000/svg" width="18" height="18" viewBox="0 0 18 18">
    <g fill="none" fill-rule="evenodd">
        <g>
            <g transform="translate(-162 -938) translate(163 939)">
                <circle cx="8" cy="8" r="8" fill="#FFF" stroke="#6A6AAE" stroke-width="1.5"/>
                <path fill="#6A6AAE" fill-rule="nonzero" d="M8.196 11.866c.617 0 1.163-.148 1.64-.445.477-.297.844-.718 1.1-1.264.256-.546.384-1.181.384-1.906v-.328c0-.721-.13-1.358-.392-1.909-.261-.55-.63-.973-1.107-1.268-.477-.295-1.022-.443-1.635-.443-.614 0-1.159.148-1.636.443-.477.295-.846.717-1.107 1.268-.26.551-.392 1.19-.392 1.914v.364c.004.708.137 1.334.4 1.878.263.544.633.963 1.112 1.256.479.293 1.023.44 1.633.44zm0-1.244c-.52 0-.917-.207-1.193-.622-.277-.414-.415-.997-.415-1.749v-.359c.004-.765.143-1.345.42-1.741.276-.396.669-.594 1.178-.594.512 0 .906.2 1.183.602.276.4.414.987.414 1.759v.359c-.003.765-.141 1.347-.414 1.746-.273.4-.664.6-1.173.6z"/>
            </g>
        </g>
    </g>
</svg>
